<!DOCTYPE svg PUBLIC "-//W3C//DTD SVG 1.1//EN" "http://www.w3.org/Graphics/SVG/1.1/DTD/svg11.dtd">
<!-- Uploaded to: SVG Repo, www.svgrepo.com, Transformed by: SVG Repo Mixer Tools -->
<svg fill="#000000" height="800px" width="800px" version="1.1" id="Layer_1" xmlns="http://www.w3.org/2000/svg" xmlns:xlink="http://www.w3.org/1999/xlink" viewBox="-51.2 -51.2 614.40 614.40" xml:space="preserve" stroke="#000000" stroke-width="0.00512">
<g id="SVGRepo_bgCarrier" stroke-width="0"/>
<g id="SVGRepo_tracerCarrier" stroke-linecap="round" stroke-linejoin="round" stroke="#CCCCCC" stroke-width="3.072"/>
<g id="SVGRepo_iconCarrier"> <g> <g> <path d="M290.909,46.545H186.159c0.023-3.375,0.023-7.238,0.023-11.636C186.182,15.663,170.519,0,151.273,0 c-19.247,0-34.909,15.663-34.909,34.909v11.636H46.545c-19.247,0-34.909,15.663-34.909,34.909v23.273 c0,6.423,5.213,11.636,11.636,11.636s11.636-5.213,11.636-11.636V81.455c0-6.412,5.225-11.636,11.636-11.636h69.818v11.636 c0,19.247,15.663,34.909,34.909,34.909c12.416,0,24.006-6.679,30.231-17.443c3.212-5.562,1.315-12.672-4.247-15.895 c-5.562-3.212-12.672-1.315-15.895,4.247c-2.083,3.584-5.946,5.818-10.089,5.818c-6.412,0-11.636-5.225-11.636-11.636V34.909 c0-6.412,5.225-11.636,11.636-11.636c6.412,0,11.636,5.225,11.636,11.636c0,0,0,21.76,0,23.145c0,0.035,0,0.081,0,0.128 c0,6.423,5.213,11.636,11.636,11.636h116.364c6.423,0,11.636-5.213,11.636-11.636S297.332,46.545,290.909,46.545z"/> </g> </g> <g> <g> <path d="M465.455,46.545h-69.818V34.909C395.636,15.663,379.974,0,360.727,0s-34.909,15.663-34.909,34.909v46.545 c0,19.247,15.663,34.909,34.909,34.909c6.132,0,12.172-1.617,17.466-4.678c5.295-3.06,9.705-7.482,12.765-12.765 c3.212-5.562,1.315-12.684-4.247-15.907c-5.562-3.212-12.684-1.315-15.907,4.247c-1.024,1.769-2.502,3.258-4.271,4.282 c-1.745,1.012-3.759,1.548-5.807,1.548c-6.412,0-11.636-5.225-11.636-11.636V34.909c0-6.412,5.225-11.636,11.636-11.636 c6.412,0,11.636,5.225,11.636,11.636v23.273c0,6.423,5.213,11.636,11.636,11.636h81.455c6.412,0,11.636,5.225,11.636,11.636 v395.636c0,6.412-5.225,11.636-11.636,11.636H46.545c-6.412,0-11.636-5.225-11.636-11.636V162.909h407.273 c6.423,0,11.636-5.213,11.636-11.636c0-6.423-5.213-11.636-11.636-11.636H23.273c-6.423,0-11.636,5.213-11.636,11.636v325.818 c0,19.247,15.663,34.909,34.909,34.909h418.909c19.247,0,34.909-15.663,34.909-34.909V81.455 C500.364,62.208,484.701,46.545,465.455,46.545z"/> </g> </g> <g> <g> <path d="M139.636,197.818H93.091c-6.423,0-11.636,5.213-11.636,11.636V256c0,6.423,5.213,11.636,11.636,11.636h46.545 c6.423,0,11.636-5.213,11.636-11.636v-46.545C151.273,203.031,146.06,197.818,139.636,197.818z M128,244.364h-23.273v-23.273H128 V244.364z"/> </g> </g> <g> <g> <path d="M232.727,197.818h-46.545c-6.423,0-11.636,5.213-11.636,11.636V256c0,6.423,5.213,11.636,11.636,11.636h46.545 c6.423,0,11.636-5.213,11.636-11.636v-46.545C244.364,203.031,239.151,197.818,232.727,197.818z M221.091,244.364h-23.273v-23.273 h23.273V244.364z"/> </g> </g> <g> <g> <path d="M325.818,197.818h-46.545c-6.423,0-11.636,5.213-11.636,11.636V256c0,6.423,5.213,11.636,11.636,11.636h46.545 c6.423,0,11.636-5.213,11.636-11.636v-46.545C337.455,203.031,332.241,197.818,325.818,197.818z M314.182,244.364h-23.273v-23.273 h23.273V244.364z"/> </g> </g> <g> <g> <path d="M418.909,197.818h-46.545c-6.423,0-11.636,5.213-11.636,11.636V256c0,6.423,5.213,11.636,11.636,11.636h46.545 c6.423,0,11.636-5.213,11.636-11.636v-46.545C430.545,203.031,425.332,197.818,418.909,197.818z M407.273,244.364H384v-23.273 h23.273V244.364z"/> </g> </g> <g> <g> <path d="M139.636,290.909H93.091c-6.423,0-11.636,5.213-11.636,11.636v46.545c0,6.423,5.213,11.636,11.636,11.636h46.545 c6.423,0,11.636-5.213,11.636-11.636v-46.545C151.273,296.122,146.06,290.909,139.636,290.909z M128,337.455h-23.273v-23.273H128 V337.455z"/> </g> </g> <g> <g> <path d="M232.727,290.909h-46.545c-6.423,0-11.636,5.213-11.636,11.636v46.545c0,6.423,5.213,11.636,11.636,11.636h46.545 c6.423,0,11.636-5.213,11.636-11.636v-46.545C244.364,296.122,239.151,290.909,232.727,290.909z M221.091,337.455h-23.273v-23.273 h23.273V337.455z"/> </g> </g> <g> <g> <path d="M325.818,290.909h-46.545c-6.423,0-11.636,5.213-11.636,11.636v46.545c0,6.423,5.213,11.636,11.636,11.636h46.545 c6.423,0,11.636-5.213,11.636-11.636v-46.545C337.455,296.122,332.241,290.909,325.818,290.909z M314.182,337.455h-23.273v-23.273 h23.273V337.455z"/> </g> </g> <g> <g> <path d="M418.909,290.909h-46.545c-6.423,0-11.636,5.213-11.636,11.636v46.545c0,6.423,5.213,11.636,11.636,11.636h46.545 c6.423,0,11.636-5.213,11.636-11.636v-46.545C430.545,296.122,425.332,290.909,418.909,290.909z M407.273,337.455H384v-23.273 h23.273V337.455z"/> </g> </g> <g> <g> <path d="M139.636,384H93.091c-6.423,0-11.636,5.213-11.636,11.636v46.545c0,6.423,5.213,11.636,11.636,11.636h46.545 c6.423,0,11.636-5.213,11.636-11.636v-46.545C151.273,389.213,146.06,384,139.636,384z M128,430.545h-23.273v-23.273H128V430.545z "/> </g> </g> <g> <g> <path d="M232.727,384h-46.545c-6.423,0-11.636,5.213-11.636,11.636v46.545c0,6.423,5.213,11.636,11.636,11.636h46.545 c6.423,0,11.636-5.213,11.636-11.636v-46.545C244.364,389.213,239.151,384,232.727,384z M221.091,430.545h-23.273v-23.273h23.273 V430.545z"/> </g> </g> <g> <g> <path d="M325.818,384h-46.545c-6.423,0-11.636,5.213-11.636,11.636v46.545c0,6.423,5.213,11.636,11.636,11.636h46.545 c6.423,0,11.636-5.213,11.636-11.636v-46.545C337.455,389.213,332.241,384,325.818,384z M314.182,430.545h-23.273v-23.273h23.273 V430.545z"/> </g> </g> <g> <g> <path d="M418.909,384h-46.545c-6.423,0-11.636,5.213-11.636,11.636v46.545c0,6.423,5.213,11.636,11.636,11.636h46.545 c6.423,0,11.636-5.213,11.636-11.636v-46.545C430.545,389.213,425.332,384,418.909,384z M407.273,430.545H384v-23.273h23.273 V430.545z"/> </g> </g> </g>
</svg>